<svg xmlns="http://www.w3.org/2000/svg" viewBox="0 0 444.94 353.22">
  <defs>
    <style>
      .cls-1 {
        fill: #a3b3d8;
      }

      .cls-1, .cls-11, .cls-14, .cls-15, .cls-17, .cls-19, .cls-2, .cls-20, .cls-21, .cls-22, .cls-23, .cls-24, .cls-25, .cls-26, .cls-27, .cls-28, .cls-29, .cls-3, .cls-30, .cls-31, .cls-32, .cls-33, .cls-35, .cls-4, .cls-6, .cls-7, .cls-8, .cls-9 {
        fill-rule: evenodd;
      }

      .cls-2 {
        fill: #ebf2f8;
      }

      .cls-3 {
        fill: #4bb89f;
      }

      .cls-4 {
        fill: #7fc8b8;
      }

      .cls-5, .cls-6 {
        fill: #a36e4e;
      }

      .cls-7 {
        fill: #794c34;
      }

      .cls-10, .cls-8 {
        fill: #dee7f4;
      }

      .cls-13, .cls-9 {
        fill: #fff;
      }

      .cls-11 {
        fill: #7385a1;
      }

      .cls-12, .cls-21 {
        fill: #8397b5;
      }

      .cls-14 {
        fill: #252626;
      }

      .cls-15, .cls-16 {
        fill: #0c0e0e;
      }

      .cls-17, .cls-18 {
        fill: #d84f50;
      }

      .cls-19 {
        fill: #a62a34;
      }

      .cls-20 {
        fill: #de7272;
      }

      .cls-22 {
        fill: #f4ad85;
      }

      .cls-23 {
        fill: #f19879;
      }

      .cls-24 {
        fill: #bec7d4;
      }

      .cls-25 {
        fill: #e8685b;
      }

      .cls-26 {
        fill: #f6bb98;
      }

      .cls-28 {
        fill: #d7e0ec;
      }

      .cls-29 {
        fill: #ef8871;
      }

      .cls-30 {
        fill: #d64341;
      }

      .cls-31 {
        fill: #f8caae;
      }

      .cls-32 {
        fill: #1c1d1d;
      }

      .cls-33 {
        fill: #be865e;
      }

      .cls-34 {
        fill: #915e40;
      }

      .cls-35 {
        fill: #d49d80;
      }
    </style>
  </defs>
  <title>Asset 1</title>
  <g id="Layer_2" data-name="Layer 2">
    <g id="OBJECTS">
      <g>
        <path class="cls-1" d="M373.42,351.21a71.73,71.73,0,0,0,71.52-71.52h0a71.73,71.73,0,0,0-71.52-71.52h0a30.33,30.33,0,0,1-30.24-30.24h0a30.33,30.33,0,0,1,30.24-30.24H377a31.53,31.53,0,0,0,31.44-31.43h0A31.53,31.53,0,0,0,377,84.82H366a12.28,12.28,0,0,1-12.24-12.24h0A12.27,12.27,0,0,1,366,60.34h8.11a8.47,8.47,0,0,0,8.45-8.45h0a8.47,8.47,0,0,0-8.45-8.45H319.56a13.31,13.31,0,0,1-13.27-13.27h0A13.31,13.31,0,0,1,319.56,16.9h16.3a8.48,8.48,0,0,0,8.45-8.45h0A8.47,8.47,0,0,0,335.86,0H97.05A11.06,11.06,0,0,0,86,11h0a11.06,11.06,0,0,0,11,11h16.72a17.37,17.37,0,0,1,17.32,17.32h0a17.37,17.37,0,0,1-17.32,17.32H49.08a11.06,11.06,0,0,0-11,11h0a11.06,11.06,0,0,0,11,11H59.66a16,16,0,0,1,16,16h0a16,16,0,0,1-16,16H45.26a41.14,41.14,0,0,0-41,41h0a41.14,41.14,0,0,0,41,41H50a39.58,39.58,0,0,1,39.46,39.46h0A39.58,39.58,0,0,1,50,271.64H39.78A39.9,39.9,0,0,0,0,311.43H0a39.9,39.9,0,0,0,39.78,39.78ZM68.84,22.05a11,11,0,1,1,11-11,11,11,0,0,1-11,11Zm329,38.29a8.45,8.45,0,1,1,8.45-8.45A8.45,8.45,0,0,1,397.8,60.34Z"/>
        <path class="cls-2" d="M233.6,51.77A5.41,5.41,0,0,0,226,59.42a5.41,5.41,0,1,0,7.64-7.65Zm-1.16-5.36a9.48,9.48,0,0,1,2.12.91,9.38,9.38,0,0,1,1.85,1.4.35.35,0,0,0,.4.05l2.51-1.45h0a.62.62,0,0,1,.46-.06.66.66,0,0,1,.38.29v0L242,50.62a.65.65,0,0,1,.06.47.59.59,0,0,1-.29.38h0l-2.49,1.44a.33.33,0,0,0-.15.37h0a10.43,10.43,0,0,1,.21,1.14,9.73,9.73,0,0,1,0,2.33,8.51,8.51,0,0,1-.22,1.14.35.35,0,0,0,.18.38l2.49,1.43h0a.59.59,0,0,1,.29.37.67.67,0,0,1-.06.48l-1.78,3.08h0a.6.6,0,0,1-.38.28.56.56,0,0,1-.47-.06h0l-2.49-1.44a.35.35,0,0,0-.4,0,9.48,9.48,0,0,1-4,2.31.33.33,0,0,0-.24.32V68a.6.6,0,0,1-.18.43.6.6,0,0,1-.44.19H228a.65.65,0,0,1-.62-.62V65.1a.34.34,0,0,0-.25-.33,9.26,9.26,0,0,1-2.12-.9,9.44,9.44,0,0,1-1.86-1.4.33.33,0,0,0-.41,0l-2.5,1.44a.56.56,0,0,1-.47.06.66.66,0,0,1-.38-.28v0l-1.77-3.06h0a.67.67,0,0,1-.06-.48.63.63,0,0,1,.29-.37l2.51-1.45a.35.35,0,0,0,.16-.37h0a10.43,10.43,0,0,1-.21-1.14,9.73,9.73,0,0,1,0-2.33,10.43,10.43,0,0,1,.21-1.14.33.33,0,0,0-.18-.38l-2.49-1.44a.62.62,0,0,1-.29-.38.65.65,0,0,1,.06-.47v0l1.77-3.06h0a.73.73,0,0,1,.38-.29.64.64,0,0,1,.47.06h0l2.51,1.45a.35.35,0,0,0,.41-.06,9.65,9.65,0,0,1,4-2.3.32.32,0,0,0,.24-.32v-2.9a.65.65,0,0,1,.62-.62h3.56a.6.6,0,0,1,.44.19.6.6,0,0,1,.18.43v2.9A.32.32,0,0,0,232.44,46.41Z"/>
        <path class="cls-2" d="M191.87,55a11.82,11.82,0,0,0-3.8-2.53,11.7,11.7,0,0,0-8.95,0,11.82,11.82,0,0,0-3.8,2.53,11.7,11.7,0,0,0-2.54,12.75,11.72,11.72,0,0,0,6.34,6.34,11.71,11.71,0,0,0,15.29-15.28A11.94,11.94,0,0,0,191.87,55Zm-4.21-1.53a10.55,10.55,0,0,1,3.44,2.3,10.65,10.65,0,0,1,2.31,11.57,10.78,10.78,0,0,1-2.31,3.45,10.61,10.61,0,0,1-15,0,10.78,10.78,0,0,1-2.31-3.45,10.7,10.7,0,0,1,0-8.12,10.67,10.67,0,0,1,2.31-3.45,10.61,10.61,0,0,1,11.57-2.3ZM189,44.86a20.37,20.37,0,0,1,2.15.77,19.21,19.21,0,0,1,2.08,1A20.54,20.54,0,0,1,195.13,48a19.83,19.83,0,0,1,1.78,1.52,1.17,1.17,0,0,0,.7.33,1.19,1.19,0,0,0,.76-.15c1.72-1,3.53-2,5.21-3a.81.81,0,0,1,.25-.08.7.7,0,0,1,.29,0,.57.57,0,0,1,.26.12.79.79,0,0,1,.19.22c1.26,1.9,2.51,4.34,3.67,6.35a.72.72,0,0,1,.09.27.61.61,0,0,1,0,.3.77.77,0,0,1-.12.26.79.79,0,0,1-.22.19c-1.55,1-3.54,2-5.18,3a1.24,1.24,0,0,0-.51.58,1.12,1.12,0,0,0-.08.26l-.11,0,.12.49c.1.38.18.76.25,1.13s.12.76.17,1.16.09.78.11,1.16,0,.77,0,1.18,0,.8,0,1.17-.06.78-.11,1.17-.1.78-.17,1.15-.15.76-.25,1.14a1.24,1.24,0,0,0,.08.81,1.17,1.17,0,0,0,.55.57L207.43,72h0l.54.32a1,1,0,0,1,.22.18.83.83,0,0,1,.12.27.58.58,0,0,1,0,.29.62.62,0,0,1-.09.27l-3.39,5.88h0l-.28.48a.64.64,0,0,1-.19.21.74.74,0,0,1-.55.15.66.66,0,0,1-.27-.09c-1.64-1-3.5-2-5.19-3a1.22,1.22,0,0,0-.76-.16,1.27,1.27,0,0,0-.7.33h0a18.42,18.42,0,0,1-1.78,1.53,20.54,20.54,0,0,1-1.95,1.29,19.36,19.36,0,0,1-2.09,1,19.57,19.57,0,0,1-2.19.78,1.19,1.19,0,0,0-.65.44,1.28,1.28,0,0,0-.24.74v6a.67.67,0,0,1-.06.28.78.78,0,0,1-.16.24.6.6,0,0,1-.25.16.64.64,0,0,1-.28.06h-7.34a.67.67,0,0,1-.28-.06.63.63,0,0,1-.24-.16.78.78,0,0,1-.16-.24.67.67,0,0,1-.06-.28v-6a1.23,1.23,0,0,0-.94-1.2,19.18,19.18,0,0,1-2.16-.77,19.94,19.94,0,0,1-2.07-1,19.34,19.34,0,0,1-1.95-1.29,17.3,17.3,0,0,1-1.78-1.53,1.25,1.25,0,0,0-.74-.33,1.19,1.19,0,0,0-.79.2l-5.12,3a.62.62,0,0,1-.27.09.58.58,0,0,1-.29,0,.68.68,0,0,1-.27-.13.77.77,0,0,1-.19-.21c-1.21-2.12-2.45-4.24-3.66-6.36a.52.52,0,0,1-.1-.27.74.74,0,0,1,0-.29.66.66,0,0,1,.12-.27.72.72,0,0,1,.21-.18l5.18-3a1.15,1.15,0,0,0,.52-.57,1.59,1.59,0,0,0,.07-.2l.13,0-.13-.55c-.1-.38-.18-.76-.25-1.14s-.13-.75-.18-1.15-.08-.78-.1-1.17,0-.76,0-1.17,0-.8,0-1.18.06-.77.1-1.16.11-.79.18-1.16.15-.75.25-1.13a1.3,1.3,0,0,0-.08-.81,1.34,1.34,0,0,0-.55-.58l-5.13-3a.57.57,0,0,1-.22-.19.57.57,0,0,1-.12-.26.77.77,0,0,1,0-.3.6.6,0,0,1,.1-.27c1.25-1.86,2.5-4.35,3.66-6.35a1,1,0,0,1,.19-.22.66.66,0,0,1,.27-.12.64.64,0,0,1,.56.07l5.19,3a1.17,1.17,0,0,0,.77.15,1.19,1.19,0,0,0,.7-.34A21.33,21.33,0,0,1,172.07,48,18.59,18.59,0,0,1,174,46.67a17.68,17.68,0,0,1,2.09-1,19.57,19.57,0,0,1,2.19-.78,1.18,1.18,0,0,0,.64-.44,1.22,1.22,0,0,0,.25-.74v-6a.77.77,0,0,1,.22-.52.81.81,0,0,1,.24-.17.87.87,0,0,1,.28,0h7.34a.82.82,0,0,1,.28,0,.74.74,0,0,1,.25.17.75.75,0,0,1,.22.52v6a1.19,1.19,0,0,0,.26.76,1.23,1.23,0,0,0,.68.43Zm2.58-.22a22.32,22.32,0,0,1,2.19,1.09,20.91,20.91,0,0,1,3.94,3,.12.12,0,0,0,.08,0,.15.15,0,0,0,.09,0l5.23-3a1.6,1.6,0,0,1,.65-.21,1.78,1.78,0,0,1,.69,0,1.9,1.9,0,0,1,.64.31,1.87,1.87,0,0,1,.47.54c1.26,2,2.46,4.26,3.67,6.35a1.81,1.81,0,0,1,.18,1.39,1.75,1.75,0,0,1-.32.64,1.85,1.85,0,0,1-.53.47c-1.67,1-3.47,2-5.18,3a.11.11,0,0,0-.06.07.25.25,0,0,0,0,.09l.12.48h0c.05.24.1.48.14.72.08.41.14.82.19,1.22s.08.81.11,1.23,0,.84,0,1.24,0,.81,0,1.24-.06.83-.11,1.23-.11.8-.19,1.22-.16.81-.26,1.2a.28.28,0,0,0,0,.09.12.12,0,0,0,.07.07c1.9,1,3.83,2.22,5.71,3.3l-.06.09,0,.07a1.75,1.75,0,0,1,.32.64,1.88,1.88,0,0,1,0,.71,1.84,1.84,0,0,1-.23.67l-3.94,6.83-.08,0-.12.1a1.75,1.75,0,0,1-.64.32,1.88,1.88,0,0,1-.71,0,2,2,0,0,1-.66-.22c-1.72-.92-3.5-2-5.2-3a.14.14,0,0,0-.09,0,.09.09,0,0,0-.08,0,20.48,20.48,0,0,1-6.14,4.06,20.78,20.78,0,0,1-2.33.83.18.18,0,0,0-.07,0,.14.14,0,0,0,0,.09v6a1.77,1.77,0,0,1-.14.69,1.91,1.91,0,0,1-.4.6,2,2,0,0,1-.59.39,1.82,1.82,0,0,1-.7.14h-7.34a1.77,1.77,0,0,1-.69-.14,2,2,0,0,1-.59-.39,1.85,1.85,0,0,1-.54-1.29v-6a.12.12,0,0,0,0-.09.1.1,0,0,0-.08,0h0a21,21,0,0,1-2.31-.82,18.67,18.67,0,0,1-2.19-1.1,19.3,19.3,0,0,1-2.06-1.36,18,18,0,0,1-1.88-1.61l-.09,0a.16.16,0,0,0-.09,0l-5.18,3a1.84,1.84,0,0,1-.67.23,1.87,1.87,0,0,1-.71,0,1.75,1.75,0,0,1-.64-.32,1.78,1.78,0,0,1-.46-.52c-1.36-2.18-2.65-4.58-3.95-6.83l.07,0,0-.17a1.88,1.88,0,0,1,.36-1.35,1.75,1.75,0,0,1,.54-.47l5.18-3,.06-.07a.14.14,0,0,0,0-.09l-.13-.55h0c-.05-.21-.09-.43-.13-.65-.08-.41-.14-.82-.19-1.22s-.09-.81-.11-1.23,0-.84,0-1.24,0-.82,0-1.24.06-.83.11-1.23.11-.81.19-1.22.16-.81.26-1.2a.34.34,0,0,0,0-.1.23.23,0,0,0-.07-.07l-5.18-3a1.81,1.81,0,0,1-.84-1.11,1.88,1.88,0,0,1-.05-.71,1.78,1.78,0,0,1,.22-.66c1.23-2.28,2.65-4.59,3.95-6.85l.07,0,.13-.11a1.9,1.9,0,0,1,.64-.31,1.87,1.87,0,0,1,.71,0,1.84,1.84,0,0,1,.67.23l.38.22h0l4.81,2.77a.1.1,0,0,0,.09,0,.12.12,0,0,0,.08,0h0a20.61,20.61,0,0,1,1.88-1.6,21.41,21.41,0,0,1,2.05-1.36,19.63,19.63,0,0,1,2.2-1.1,21.3,21.3,0,0,1,2.32-.82.16.16,0,0,0,.08-.05.16.16,0,0,0,0-.09v-6a1.86,1.86,0,0,1,.14-.7,1.81,1.81,0,0,1,.4-.59,2,2,0,0,1,.59-.4,1.77,1.77,0,0,1,.69-.14h7.34a1.82,1.82,0,0,1,.7.14,2,2,0,0,1,.59.4,1.83,1.83,0,0,1,.54,1.29v6a.12.12,0,0,0,0,.09.11.11,0,0,0,.08.05h0A19.11,19.11,0,0,1,191.53,44.64Z"/>
        <g>
          <path class="cls-3" d="M337.41,311.8l2.77,3.47h12.6l2.78-3.47C365.52,284.93,327.45,284.93,337.41,311.8Z"/>
          <path class="cls-4" d="M341,311.8l1.67,3.47h7.62L352,311.8C358,284.93,335,284.93,341,311.8Z"/>
          <g>
            <rect class="cls-5" x="334.31" y="309.56" width="24.34" height="8.9" rx="1.36"/>
            <polygon class="cls-6" points="353.69 314.59 339.27 314.59 335.51 318.46 338.58 331.96 346.48 331.96 354.38 331.96 357.46 318.46 353.69 314.59"/>
            <polygon class="cls-7" points="335.51 318.46 336.14 321.12 356.83 321.12 357.46 318.46 335.51 318.46"/>
          </g>
          <g>
            <path class="cls-3" d="M353.4,295.56l-.78,1.79,2.57,4.9,1.92.37C369.6,301,361.82,286.19,353.4,295.56Z"/>
            <path class="cls-4" d="M358.67,300.29c6.43-3,3.75-8.14-2.32-4.6C351.21,298.7,353.31,302.76,358.67,300.29Z"/>
          </g>
          <g>
            <path class="cls-3" d="M340.56,295.16l.25,1.45L338,299.73l-1.47-.07C327.71,296.21,336.09,286.78,340.56,295.16Z"/>
            <path class="cls-4" d="M335.84,297.67c-4.18-3.34-1.27-6.64,2.53-2.94C341.59,297.86,339.31,300.45,335.84,297.67Z"/>
          </g>
        </g>
        <g>
          <path class="cls-8" d="M354.62,109.7a13.16,13.16,0,0,0-12.32,8.54,7.21,7.21,0,0,0-1.48-.16,6.81,6.81,0,0,0-6.33,4.3A7,7,0,1,0,332.28,136h49.11a8.49,8.49,0,1,0-2.69-16.54,8.27,8.27,0,0,0-12.82-3.42A13.13,13.13,0,0,0,354.62,109.7Z"/>
          <path class="cls-9" d="M336.58,102.11a16.95,16.95,0,0,1,0,33.9H302.1a10.93,10.93,0,0,1,0-21.86,10.72,10.72,0,0,1,3.46.56,10.62,10.62,0,0,1,16.51-4.41A16.94,16.94,0,0,1,336.58,102.11Z"/>
          <rect class="cls-10" x="302.95" y="140.16" width="4.47" height="4.47" rx="0.89"/>
          <rect class="cls-10" x="312.11" y="140.16" width="4.47" height="4.47" rx="0.89"/>
          <rect class="cls-10" x="321.27" y="140.16" width="4.47" height="4.47" rx="0.89"/>
          <rect class="cls-10" x="330.44" y="140.16" width="4.47" height="4.47" rx="0.89"/>
        </g>
        <g>
          <path class="cls-9" d="M344.33,241.91H343a.79.79,0,0,0-.79.79h0a.79.79,0,0,0,.79.79h1.29a.79.79,0,0,0,.79-.79h0A.79.79,0,0,0,344.33,241.91Z"/>
          <path class="cls-9" d="M363.77,254.16h8.32a.79.79,0,0,1,.79.79h0a.79.79,0,0,1-.79.79h-8.32A.79.79,0,0,1,363,255h0A.79.79,0,0,1,363.77,254.16Z"/>
          <path class="cls-9" d="M356.07,259.82h-6.94a.8.8,0,0,0-.79.8h0a.8.8,0,0,0,.79.79h6.94a.79.79,0,0,0,.79-.79h0A.79.79,0,0,0,356.07,259.82Z"/>
          <path class="cls-9" d="M351,270.49h-1.85a.8.8,0,0,0-.79.79h0a.79.79,0,0,0,.79.79H351a.79.79,0,0,0,.79-.79h0A.8.8,0,0,0,351,270.49Z"/>
          <path class="cls-9" d="M411.38,281.82H390.74a.8.8,0,0,0-.79.79h0a.8.8,0,0,0,.79.8h20.64a.8.8,0,0,0,.8-.8h0A.8.8,0,0,0,411.38,281.82Z"/>
          <path class="cls-9" d="M397.85,287.49h8.33a.8.8,0,0,1,.79.79h0a.79.79,0,0,1-.79.79h-8.33a.79.79,0,0,1-.79-.79h0A.8.8,0,0,1,397.85,287.49Z"/>
          <path class="cls-9" d="M390.16,293.16h-6.94a.79.79,0,0,0-.79.79h0a.8.8,0,0,0,.79.79h6.94A.8.8,0,0,0,391,294h0A.79.79,0,0,0,390.16,293.16Z"/>
          <path class="cls-9" d="M385.06,303.83h-1.84a.79.79,0,0,0-.79.79h0a.8.8,0,0,0,.79.79h1.84a.8.8,0,0,0,.8-.79h0A.79.79,0,0,0,385.06,303.83Z"/>
          <path class="cls-9" d="M423.4,315.15H402.76a.8.8,0,0,0-.79.8h0a.8.8,0,0,0,.79.79H423.4a.79.79,0,0,0,.79-.79h0A.79.79,0,0,0,423.4,315.15Z"/>
        </g>
        <g>
          <path class="cls-11" d="M329.76,241.91H319a.79.79,0,0,0-.79.79h0a.79.79,0,0,0,.79.79h10.75a.79.79,0,0,0,.79-.79h0A.8.8,0,0,0,329.76,241.91Z"/>
          <path class="cls-11" d="M375.8,247.24H354.51a.8.8,0,0,0-.79.8h0a.8.8,0,0,0,.79.79H375.8a.8.8,0,0,0,.8-.79h0A.8.8,0,0,0,375.8,247.24Z"/>
          <path class="cls-11" d="M324,247.24h24a.8.8,0,0,1,.79.8h0a.8.8,0,0,1-.79.79H324a.8.8,0,0,1-.79-.79h0A.8.8,0,0,1,324,247.24Z"/>
          <path class="cls-11" d="M339,241.91H318.67a.79.79,0,0,0-.79.79h0a.79.79,0,0,0,.79.79H339a.79.79,0,0,0,.79-.79h0A.8.8,0,0,0,339,241.91Z"/>
          <path class="cls-11" d="M406.26,254.16H375.62a.79.79,0,0,0-.79.79h0a.79.79,0,0,0,.79.79h30.64a.79.79,0,0,0,.79-.79h0A.79.79,0,0,0,406.26,254.16Z"/>
          <path class="cls-11" d="M360.61,254.16H330a.79.79,0,0,0-.79.79h0a.8.8,0,0,0,.79.79h30.65a.8.8,0,0,0,.79-.79h0A.79.79,0,0,0,360.61,254.16Z"/>
          <path class="cls-11" d="M344.77,259.82H333.85a.8.8,0,0,0-.79.8h0a.8.8,0,0,0,.79.79h10.92a.79.79,0,0,0,.79-.79h0A.79.79,0,0,0,344.77,259.82Z"/>
          <path class="cls-11" d="M408.48,259.82H360a.79.79,0,0,0-.79.8h0a.79.79,0,0,0,.79.79h48.51a.8.8,0,0,0,.8-.79h0A.8.8,0,0,0,408.48,259.82Z"/>
          <path class="cls-11" d="M382.37,265.22H333.85a.8.8,0,0,0-.79.8h0a.8.8,0,0,0,.79.79h48.52a.79.79,0,0,0,.79-.79h0A.79.79,0,0,0,382.37,265.22Z"/>
          <path class="cls-11" d="M344.77,270.49H333.85a.8.8,0,0,0-.79.79h0a.79.79,0,0,0,.79.79h10.92a.79.79,0,0,0,.79-.79h0A.79.79,0,0,0,344.77,270.49Z"/>
          <path class="cls-11" d="M389.32,270.49H355.15a.8.8,0,0,0-.79.79h0a.79.79,0,0,0,.79.79h34.17a.79.79,0,0,0,.79-.79h0A.8.8,0,0,0,389.32,270.49Z"/>
          <path class="cls-11" d="M397.16,276.16H343.45a.79.79,0,0,0-.79.79h0a.8.8,0,0,0,.79.79h53.71A.8.8,0,0,0,398,277h0A.79.79,0,0,0,397.16,276.16Z"/>
          <path class="cls-11" d="M385.64,281.82h-34.9a.79.79,0,0,0-.79.79h0a.79.79,0,0,0,.79.8h34.9a.79.79,0,0,0,.79-.8h0A.79.79,0,0,0,385.64,281.82Z"/>
          <path class="cls-11" d="M440.35,287.49H409.71a.8.8,0,0,0-.8.79h0a.79.79,0,0,0,.8.79h30.64a.79.79,0,0,0,.79-.79h0A.8.8,0,0,0,440.35,287.49Z"/>
          <path class="cls-11" d="M394.7,287.49H364.05a.8.8,0,0,0-.79.79h0a.79.79,0,0,0,.79.79H394.7a.79.79,0,0,0,.79-.79h0A.8.8,0,0,0,394.7,287.49Z"/>
          <path class="cls-11" d="M378.86,293.16H367.94a.79.79,0,0,0-.79.79h0a.79.79,0,0,0,.79.79h10.92a.8.8,0,0,0,.79-.79h0A.79.79,0,0,0,378.86,293.16Z"/>
          <path class="cls-11" d="M442.57,293.16H394.06a.79.79,0,0,0-.8.79h0a.8.8,0,0,0,.8.79h48.51a.79.79,0,0,0,.79-.79h0A.79.79,0,0,0,442.57,293.16Z"/>
          <path class="cls-11" d="M416.46,298.56H367.94a.79.79,0,0,0-.79.79h0a.79.79,0,0,0,.79.79h48.52a.8.8,0,0,0,.79-.79h0A.79.79,0,0,0,416.46,298.56Z"/>
          <path class="cls-11" d="M378.86,303.83H367.94a.79.79,0,0,0-.79.79h0a.79.79,0,0,0,.79.79h10.92a.8.8,0,0,0,.79-.79h0A.79.79,0,0,0,378.86,303.83Z"/>
          <path class="cls-11" d="M423.4,303.83H389.24a.79.79,0,0,0-.79.79h0a.79.79,0,0,0,.79.79H423.4a.79.79,0,0,0,.79-.79h0A.79.79,0,0,0,423.4,303.83Z"/>
          <path class="cls-11" d="M416.46,309.49H362.75a.8.8,0,0,0-.79.79h0a.79.79,0,0,0,.79.79h53.71a.79.79,0,0,0,.79-.79h0A.8.8,0,0,0,416.46,309.49Z"/>
          <path class="cls-11" d="M397.66,315.15H362.75a.8.8,0,0,0-.79.8h0a.8.8,0,0,0,.79.79h34.91a.8.8,0,0,0,.79-.79h0A.8.8,0,0,0,397.66,315.15Z"/>
        </g>
        <g>
          <path class="cls-9" d="M51,167.37l-8-3.51v-1.15l8-4v1.92l-5.49,2.55L51,165.45v1.92Zm2.92-2.26v-.6a2.64,2.64,0,0,1,.33-1.34A4.28,4.28,0,0,1,55.41,162a5.08,5.08,0,0,0,1.11-1,1.4,1.4,0,0,0,.27-.84.93.93,0,0,0-.39-.8,1.84,1.84,0,0,0-1.07-.27,6.25,6.25,0,0,0-2.75.79l-.87-1.76a7.59,7.59,0,0,1,3.79-1,4,4,0,0,1,2.63.79,2.61,2.61,0,0,1,1,2.12,2.9,2.9,0,0,1-.4,1.53A6,6,0,0,1,57.18,163a4.91,4.91,0,0,0-1,.87,1.37,1.37,0,0,0-.2.77v.49Zm-.25,2.74a1.35,1.35,0,0,1,.36-1,1.46,1.46,0,0,1,1.05-.34,1.44,1.44,0,0,1,1,.35,1.55,1.55,0,0,1,0,2,1.38,1.38,0,0,1-1,.37,1.41,1.41,0,0,1-1-.36,1.32,1.32,0,0,1-.37-1Zm9.85-5.06h.82a2.65,2.65,0,0,0,1.71-.46,1.58,1.58,0,0,0,.57-1.32,1.66,1.66,0,0,0-.47-1.29,2.24,2.24,0,0,0-1.5-.42H63.47v3.49Zm5.62-1.87a3.57,3.57,0,0,1-1.19,2.9,5,5,0,0,1-3.36,1H63.47V169H61V157.26h3.75a5,5,0,0,1,3.25.92,3.35,3.35,0,0,1,1.11,2.74ZM80.92,169H78.44v-5.06H73.79V169H71.3V157.26h2.49v4.61h4.65v-4.61h2.48V169Zm5.45-6.21h.82a2.68,2.68,0,0,0,1.72-.46,1.58,1.58,0,0,0,.57-1.32,1.62,1.62,0,0,0-.47-1.29,2.24,2.24,0,0,0-1.5-.42H86.37v3.49ZM92,160.92a3.57,3.57,0,0,1-1.19,2.9,5.06,5.06,0,0,1-3.37,1H86.37V169H83.89V157.26h3.75a5,5,0,0,1,3.25.92A3.35,3.35,0,0,1,92,160.92Zm3,4.19v-.6a2.64,2.64,0,0,1,.33-1.34A4.28,4.28,0,0,1,96.49,162a5.08,5.08,0,0,0,1.11-1,1.4,1.4,0,0,0,.27-.84.93.93,0,0,0-.39-.8,1.84,1.84,0,0,0-1.07-.27,6.25,6.25,0,0,0-2.75.79l-.88-1.76a7.66,7.66,0,0,1,3.8-1,4,4,0,0,1,2.63.79,2.61,2.61,0,0,1,1,2.12,2.9,2.9,0,0,1-.4,1.53A6,6,0,0,1,98.26,163a4.5,4.5,0,0,0-1,.87,1.3,1.3,0,0,0-.21.77v.49Zm-.25,2.74a1.35,1.35,0,0,1,.36-1,1.46,1.46,0,0,1,1-.34,1.44,1.44,0,0,1,1,.35,1.32,1.32,0,0,1,.36,1,1.35,1.35,0,0,1-.36,1,1.38,1.38,0,0,1-1,.37,1.41,1.41,0,0,1-1-.36,1.32,1.32,0,0,1-.37-1Zm6.59-2.4,5.49-2.25-5.49-2.55v-1.92l8,4v1.15l-8,3.51Z"/>
          <rect class="cls-12" x="39.65" y="108.46" width="76.68" height="42.55" rx="3.6"/>
          <rect class="cls-13" x="37.78" y="106.54" width="76.68" height="42.55" rx="3.6"/>
          <path class="cls-14" d="M41.38,106.54h69.48a3.61,3.61,0,0,1,3.6,3.6v5a1,1,0,0,1-1,1H38.79a1,1,0,0,1-1-1v-5A3.61,3.61,0,0,1,41.38,106.54Z"/>
          <path class="cls-15" d="M43.61,120.14H63.08a.75.75,0,0,1,.75.75h0a.75.75,0,0,1-.75.75H43.61a.76.76,0,0,1-.75-.75h0A.76.76,0,0,1,43.61,120.14Z"/>
          <rect class="cls-16" x="53.64" y="123.44" width="10.19" height="1.5" rx="0.75"/>
          <rect class="cls-16" x="49.84" y="123.44" width="2.19" height="1.5" rx="0.75"/>
          <rect class="cls-16" x="42.86" y="123.44" width="5.85" height="1.5" rx="0.75"/>
          <path class="cls-15" d="M43.61,127.36H63.08a.75.75,0,0,1,.75.75h0a.75.75,0,0,1-.75.75H43.61a.76.76,0,0,1-.75-.75h0A.76.76,0,0,1,43.61,127.36Z"/>
          <path class="cls-15" d="M43.61,130.66h8.7a.76.76,0,0,1,.75.75h0a.76.76,0,0,1-.75.75h-8.7a.76.76,0,0,1-.75-.75h0A.76.76,0,0,1,43.61,130.66Z"/>
          <path class="cls-15" d="M56.1,130.66h-.69a.76.76,0,0,0-.75.75h0a.76.76,0,0,0,.75.75h.69a.75.75,0,0,0,.75-.75h0A.75.75,0,0,0,56.1,130.66Z"/>
          <path class="cls-15" d="M63.08,130.66H58.73a.75.75,0,0,0-.75.75h0a.75.75,0,0,0,.75.75h4.35a.75.75,0,0,0,.75-.75h0A.75.75,0,0,0,63.08,130.66Z"/>
          <path class="cls-15" d="M43.61,134.58H63.08a.75.75,0,0,1,.75.75h0a.75.75,0,0,1-.75.75H43.61a.76.76,0,0,1-.75-.75h0A.76.76,0,0,1,43.61,134.58Z"/>
          <rect class="cls-16" x="53.64" y="137.88" width="10.19" height="1.5" rx="0.75"/>
          <rect class="cls-16" x="49.84" y="137.88" width="2.19" height="1.5" rx="0.75"/>
          <rect class="cls-16" x="42.86" y="137.88" width="5.85" height="1.5" rx="0.75"/>
          <path class="cls-15" d="M43.61,141.8H63.08a.75.75,0,0,1,.75.75h0a.75.75,0,0,1-.75.75H43.61a.76.76,0,0,1-.75-.75h0A.76.76,0,0,1,43.61,141.8Z"/>
          <path class="cls-17" d="M75.55,120.14h33a.75.75,0,0,1,.74.75h0a.75.75,0,0,1-.74.75H75.55a.75.75,0,0,1-.75-.75h0A.75.75,0,0,1,75.55,120.14Z"/>
          <rect class="cls-18" x="92.5" y="123.44" width="16.75" height="1.5" rx="0.75"/>
          <rect class="cls-18" x="86.26" y="123.44" width="3.59" height="1.5" rx="0.75"/>
          <rect class="cls-18" x="74.8" y="123.44" width="9.62" height="1.5" rx="0.75"/>
          <path class="cls-17" d="M75.55,127.36h33a.75.75,0,0,1,.74.75h0a.75.75,0,0,1-.74.75H75.55a.75.75,0,0,1-.75-.75h0A.75.75,0,0,1,75.55,127.36Z"/>
          <path class="cls-17" d="M75.55,130.66H90.8a.75.75,0,0,1,.74.75h0a.75.75,0,0,1-.74.75H75.55a.75.75,0,0,1-.75-.75h0A.75.75,0,0,1,75.55,130.66Z"/>
          <path class="cls-17" d="M97,130.66h-2.1a.75.75,0,0,0-.74.75h0a.75.75,0,0,0,.74.75H97a.76.76,0,0,0,.75-.75h0A.76.76,0,0,0,97,130.66Z"/>
          <path class="cls-17" d="M108.5,130.66h-8.12a.75.75,0,0,0-.75.75h0a.75.75,0,0,0,.75.75h8.12a.75.75,0,0,0,.74-.75h0A.75.75,0,0,0,108.5,130.66Z"/>
          <path class="cls-17" d="M75.55,134.58h33a.75.75,0,0,1,.74.75h0a.75.75,0,0,1-.74.75H75.55a.75.75,0,0,1-.75-.75h0A.75.75,0,0,1,75.55,134.58Z"/>
          <rect class="cls-18" x="92.5" y="137.88" width="16.75" height="1.5" rx="0.75"/>
          <rect class="cls-18" x="86.26" y="137.88" width="3.59" height="1.5" rx="0.75"/>
          <rect class="cls-18" x="74.8" y="137.88" width="9.62" height="1.5" rx="0.75"/>
          <path class="cls-17" d="M75.55,141.8h33a.75.75,0,0,1,.74.75h0a.75.75,0,0,1-.74.75H75.55a.75.75,0,0,1-.75-.75h0A.75.75,0,0,1,75.55,141.8Z"/>
          <path class="cls-9" d="M96,113.06a1.73,1.73,0,1,0-1.73-1.73A1.73,1.73,0,0,0,96,113.06Z"/>
          <path class="cls-9" d="M102.21,113.06a1.73,1.73,0,1,0-1.73-1.73A1.73,1.73,0,0,0,102.21,113.06Z"/>
          <path class="cls-9" d="M108.44,113.06a1.73,1.73,0,1,0-1.73-1.73A1.72,1.72,0,0,0,108.44,113.06Z"/>
        </g>
        <rect class="cls-10" x="90.78" y="70.01" width="4.47" height="4.47" rx="0.89"/>
        <rect class="cls-10" x="99.94" y="70.01" width="4.47" height="4.47" rx="0.89"/>
        <rect class="cls-10" x="109.1" y="70.01" width="4.47" height="4.47" rx="0.89"/>
        <rect class="cls-10" x="118.27" y="70.01" width="4.47" height="4.47" rx="0.89"/>
        <rect class="cls-10" x="31.79" y="320.56" width="4.47" height="4.47" rx="0.89"/>
        <rect class="cls-10" x="40.95" y="320.56" width="4.47" height="4.47" rx="0.89"/>
        <rect class="cls-10" x="50.11" y="320.56" width="4.47" height="4.47" rx="0.89"/>
        <rect class="cls-10" x="59.27" y="320.56" width="4.47" height="4.47" rx="0.89"/>
        <g>
          <path class="cls-19" d="M131.75,300.37a10.69,10.69,0,1,1-7.55,3.13,10.63,10.63,0,0,1,7.55-3.13Zm4.61,6.07a6.53,6.53,0,1,0,1.9,4.61A6.52,6.52,0,0,0,136.36,306.44Z"/>
          <path class="cls-17" d="M114.75,332h0a16.8,16.8,0,0,0,16.75-16.75V297.75a1.49,1.49,0,0,0-1.48-1.48H99.48A1.48,1.48,0,0,0,98,297.75v17.46A16.79,16.79,0,0,0,114.75,332Z"/>
          <path class="cls-19" d="M125.76,313.12a16.45,16.45,0,0,1-.81,5.13,16.18,16.18,0,0,1-1.11,2.64,16.92,16.92,0,0,1-8.43,7.7,16.58,16.58,0,0,1-9.14,1.05,16.66,16.66,0,0,0,18.53-1.05,17,17,0,0,0,4.5-5.11,16.46,16.46,0,0,0,1.19-2.55,16.7,16.7,0,0,0,1-5.72V297.75a1.49,1.49,0,0,0-1.48-1.48h-4.26v16.85Z"/>
          <path class="cls-17" d="M100.23,332h29a2.24,2.24,0,0,0,2.23-2.23h0a2.24,2.24,0,0,0-2.23-2.23h-29A2.23,2.23,0,0,0,98,329.73h0A2.23,2.23,0,0,0,100.23,332Z"/>
          <path class="cls-20" d="M103.36,299.45h0a2.84,2.84,0,0,1,2.82,2.82v10.11a2.83,2.83,0,0,1-2.82,2.82h0a2.83,2.83,0,0,1-2.82-2.82V302.27A2.84,2.84,0,0,1,103.36,299.45Z"/>
          <path class="cls-9" d="M100.44,275.61h12.77a1.76,1.76,0,0,0,1.76-1.75h0a1.76,1.76,0,0,0-1.76-1.76H96a4.62,4.62,0,0,1-4.6-4.61h0A4.61,4.61,0,0,1,96,262.9H140.7a4.61,4.61,0,0,1,4.6,4.59h0a4.62,4.62,0,0,1-4.6,4.61H125.12a1.76,1.76,0,0,0-1.76,1.76h0a1.76,1.76,0,0,0,1.76,1.75h6a3.57,3.57,0,0,1,3.55,3.56h0a3.56,3.56,0,0,1-3.55,3.54H121.2a7.08,7.08,0,0,0-7,7.06V293a1.67,1.67,0,0,1-1.67,1.67h0a1.67,1.67,0,0,1-1.67-1.67v-6.15a4.15,4.15,0,0,0-4.13-4.14h-6.24a3.56,3.56,0,0,1-3.55-3.54h0A3.57,3.57,0,0,1,100.44,275.61Z"/>
        </g>
        <g>
          <path class="cls-21" d="M327,53.47H281.63a6,6,0,0,0-6,6v46.18a.66.66,0,0,0,1.14.47L287,95.9h40a6,6,0,0,0,6-6V59.46A6,6,0,0,0,327,53.47Z"/>
          <path class="cls-17" d="M325.68,51.87H280.31a6,6,0,0,0-6,6v46.18a.67.67,0,0,0,1.14.47l10.21-10.21h40a6,6,0,0,0,6-6V57.87A6,6,0,0,0,325.68,51.87Z"/>
          <path class="cls-9" d="M293.66,75.21A4.42,4.42,0,0,1,292,78.86a7.19,7.19,0,0,1-4.65,1.34,10.83,10.83,0,0,1-4.84-1V75.79a20.49,20.49,0,0,0,2.93,1.1,8.67,8.67,0,0,0,2.19.31,3.19,3.19,0,0,0,1.84-.45,1.56,1.56,0,0,0,.64-1.36,1.48,1.48,0,0,0-.28-.9,3.24,3.24,0,0,0-.83-.75,19,19,0,0,0-2.22-1.16,11,11,0,0,1-2.35-1.42,5.14,5.14,0,0,1-1.25-1.58,4.9,4.9,0,0,1,1.06-5.68,6.4,6.4,0,0,1,4.26-1.3,9.69,9.69,0,0,1,2.55.32,16.37,16.37,0,0,1,2.53.89l-1.17,2.82a15.36,15.36,0,0,0-2.26-.78,7.27,7.27,0,0,0-1.76-.23,2.36,2.36,0,0,0-1.59.48,1.61,1.61,0,0,0-.55,1.26,1.52,1.52,0,0,0,.23.83,2.3,2.3,0,0,0,.7.69,19.7,19.7,0,0,0,2.3,1.2,9.36,9.36,0,0,1,3.3,2.3,4.51,4.51,0,0,1,.89,2.83Zm18.63-3.83a10.93,10.93,0,0,1-1.07,5.07,6.6,6.6,0,0,1-3.14,3L312.2,84h-4.65l-3.14-3.83h-.27a7.83,7.83,0,0,1-6-2.28c-1.41-1.53-2.11-3.71-2.11-6.56s.71-5,2.12-6.53a7.91,7.91,0,0,1,6.06-2.25,7.75,7.75,0,0,1,6,2.27q2.08,2.27,2.09,6.53Zm-12.49,0a7.13,7.13,0,0,0,1.09,4.32,3.79,3.79,0,0,0,3.25,1.45q4.35,0,4.35-5.77c0-3.86-1.44-5.78-4.32-5.78a3.86,3.86,0,0,0-3.27,1.45,7.18,7.18,0,0,0-1.1,4.33Zm16,8.58V62.84h3.63V77h7v3Z"/>
        </g>
        <g>
          <path class="cls-9" d="M160.58,183.2a2.49,2.49,0,1,0-2.48-2.49A2.5,2.5,0,0,0,160.58,183.2Z"/>
          <path class="cls-9" d="M323.85,211.9a2.49,2.49,0,1,0-2.48-2.49A2.49,2.49,0,0,0,323.85,211.9Z"/>
          <path class="cls-9" d="M256.85,24.72a2.49,2.49,0,1,0-2.49-2.49A2.49,2.49,0,0,0,256.85,24.72Z"/>
          <path class="cls-9" d="M61.66,300a2.49,2.49,0,1,0-2.49-2.48A2.48,2.48,0,0,0,61.66,300Z"/>
          <path class="cls-9" d="M138.86,82.25a2.49,2.49,0,1,0-2.49-2.48A2.48,2.48,0,0,0,138.86,82.25Z"/>
          <path class="cls-9" d="M157.07,24.09A1.13,1.13,0,1,0,155.94,23,1.14,1.14,0,0,0,157.07,24.09Z"/>
          <path class="cls-9" d="M186.93,107.85a1.13,1.13,0,1,0-1.13-1.13A1.14,1.14,0,0,0,186.93,107.85Z"/>
          <path class="cls-9" d="M261.22,59.78a1.13,1.13,0,1,0-1.13-1.13A1.14,1.14,0,0,0,261.22,59.78Z"/>
          <path class="cls-9" d="M293.27,180a1.13,1.13,0,1,0-1.13-1.13A1.13,1.13,0,0,0,293.27,180Z"/>
          <path class="cls-9" d="M375.57,100.56a1.13,1.13,0,1,0-1.13-1.13A1.13,1.13,0,0,0,375.57,100.56Z"/>
          <path class="cls-9" d="M170.18,153a1.13,1.13,0,1,0-1.13-1.13A1.13,1.13,0,0,0,170.18,153Z"/>
          <path class="cls-9" d="M110.45,236.76a1.13,1.13,0,1,0-1.13-1.13A1.13,1.13,0,0,0,110.45,236.76Z"/>
          <path class="cls-9" d="M34,299.4a1.13,1.13,0,1,0-1.13-1.13A1.14,1.14,0,0,0,34,299.4Z"/>
          <path class="cls-9" d="M377,230.93a1.13,1.13,0,0,0,0-2.26,1.13,1.13,0,0,0,0,2.26Z"/>
          <path class="cls-9" d="M396.69,333.63a1.13,1.13,0,1,0-1.13-1.13A1.14,1.14,0,0,0,396.69,333.63Z"/>
          <path class="cls-9" d="M26,159.56a1.13,1.13,0,1,0-1.13-1.13A1.14,1.14,0,0,0,26,159.56Z"/>
          <path class="cls-9" d="M98.07,94a1.13,1.13,0,1,0-1.13-1.13A1.14,1.14,0,0,0,98.07,94Z"/>
          <path class="cls-9" d="M221.16,25.55A1.13,1.13,0,1,0,220,24.42,1.14,1.14,0,0,0,221.16,25.55Z"/>
          <path class="cls-9" d="M297.64,37.93a1.13,1.13,0,1,0-1.13-1.13A1.13,1.13,0,0,0,297.64,37.93Z"/>
        </g>
        <g>
          <path class="cls-9" d="M155.46,141.36c-2.32,7.14-4.55,16.14-6.22,20.74-12.87,35.43-8.92,37.09,18.88,35,11.17-.84,22-.88,43.1-4.07,3.05-.45,1.58,1.08,3.13,2.56s-11.85,12-11.85,12l-24.86,26.19c-19.07-2-46.79-7.83-59-16.61-18.7-15.93,8.5-60.5,17.88-82.45.76-1.79,5.88-.47,6.38-1.93C145.71,133.85,156.92,136.87,155.46,141.36Z"/>
          <path class="cls-22" d="M162.89,134.62a17.26,17.26,0,0,1,8.78-3.1c1.85-.07.05-7-6.17-4,0,0-3.25.24-3.64-1.13S173.21,110,174.5,108.4a2.19,2.19,0,0,0-1.2-3.44c-.87,0-2.7,2.37-5.23,5.24s-5.4,6.06-5.89,6.11-1.13-.56-.36-2.68,5.47-13.57,5.13-14.7-2.43-1.68-3.65-.16-5.52,13.26-6.55,14.59-2.17.13-2.07-1,3-14.57,2.68-15.63-2.43-1.56-3.29.34-4.13,14.6-4.83,15.26-2.11.31-2.6-2.24-.88-7.94-1.42-8.52-2.95.44-2.94,3.14S142.1,114,142,115c-.8,5.2-3,9.69-3,13.83a10.1,10.1,0,0,0,1,4.47,14.39,14.39,0,0,0,8.72,7.41C155.16,142.54,158,138.1,162.89,134.62Z"/>
          <path class="cls-23" d="M162.89,134.62a17.26,17.26,0,0,1,8.78-3.1c.63,0,.84-.85.59-1.81-1-.39-5.9.77-10.42,2.82-6.61,3-14,6.49-19.68-1.47-1.49-2.07-2-7.84-1.55-10.33a33.2,33.2,0,0,0-1.71,8.11,10.1,10.1,0,0,0,1,4.47c-3.39,5.19,3.92,10,10,10.11,2.37.05,2.23-1.9,4.68-2.88C157.52,139.4,159.79,136.82,162.89,134.62Z"/>
          <path class="cls-2" d="M279.7,200.69s5.07,2.39,10.73,9c4,4.71,23.92,39.14,30.84,72.13,1.52,7.23-9.25,36.38-28.69,50.14l17.36,3.75c-1.65-3.43-39.34-2.2-41.83-7.57-7.22-15.57,19.28-41.34,19.28-41.34Z"/>
          <path class="cls-9" d="M232.91,188.35c10.14,2.68,40.52,10.83,42.18,12.55,2,2.06,11.06,51.48,11.08,56.3,0,4.46-10.44,65.69-12.15,82.4H185.24c-1.71-16.71-12.16-77.94-12.14-82.4,0-4.82,9.24-54.41,11.07-56.3s18.87-5.26,29-7.94L226,209.73l1.81,0,1.87,3.27,1.87-3.27,1.82,0Z"/>
          <path class="cls-2" d="M175.11,273.86c-1.5-8.84-2.54-15.32-2.54-16.66,0-2.76,3.35-20.14,6.58-34.88,2.36,1.27,1,8.15,1.31,19C180.63,247.54,178,261.27,175.11,273.86Z"/>
          <path class="cls-2" d="M233.26,188.35C244.45,191,278,199.18,279.83,200.9,282,203,292,252.38,292.06,257.2c0,1.61-1.48,10.56-3.48,22.14-17.14,4.42-31.14,7.38-31.14,7.38s28.23-32.41,25.77-46.66-4.19-27.45-6.56-28.91-17.38-6.83-21.85-7.92-5.09,2.19-5.09,2.19-3.28,11.28-3.83,13.52-1.68,3.23-3,2.59-8.33-6.05-8.78-5.78-3.38,5.46-3.38,5.46l-2.07-2.5-1.75-4.46s-7.87,6.28-9.1,7.19a2.21,2.21,0,0,1-3.42-.82c-.36-1.27-3.83-17.83-3.83-17.83L213,191.52c5.27-1.31,10-2.44,13-3.17l-.45,21.38,2,0,2.06,3.27,2.07-3.27,2,0Z"/>
          <path class="cls-24" d="M228.6,211.35l1,1.63,1-1.63v30.53a1,1,0,0,1-2.07,0Z"/>
          <path class="cls-25" d="M229.09,153.19h.28c8.15-.12,14.89,8.46,15,19.07l.21,22.66c.05,6.83-2.66,12.91-6.77,16.4v-1.59h-6.1L229.63,213l-2-3.25h-5v2.5c-4.66-3.2-7.88-9.55-7.95-16.86l-.2-22.66C214.36,162.1,220.94,153.32,229.09,153.19Z"/>
          <path class="cls-26" d="M229,149.43a10,10,0,0,0-2.12-5.31l-15.73,12.59a10.07,10.07,0,0,0,4.72,3.23L229,149.43ZM225.86,143,210.3,155.45a10,10,0,0,1-1.08-2.64l14.3-11.45A9.62,9.62,0,0,1,225.86,143Z"/>
          <path class="cls-27" d="M186.76,140.1,181,143c-5,16.33,7.16,44.92,30.39,34.7,9.23-4-7.94-38.24-7.94-38.24Z"/>
          <path class="cls-15" d="M180,148.64c-1,13.07,6.37,29.57,19.9,31.12C204.49,160.11,187.34,151.42,180,148.64Z"/>
          <path class="cls-27" d="M266.27,108.58c10.76,9.11,26.72,39.85,10.37,50.26-5.31,3.38-9.27,8.15-18.36,4.06S250,110.46,250,110.46,260.83,105.83,266.27,108.58Z"/>
          <path class="cls-28" d="M279.78,200.73c.16.11.57.41,1.18.92,2.7,7.82,5.39,20.42,6.8,40.72a.54.54,0,0,1-.37.62c-.22,0-.42-.2-.45-.51C285.45,220.92,282.55,208.21,279.78,200.73Z"/>
          <path class="cls-2" d="M196.67,195.47c-9,7.15-13.22,19.71-19,38.3l-.83-.11c5.65-18.19,9.37-30.68,18.38-38Z"/>
          <g>
            <path class="cls-25" d="M202.08,136.94h-.71a9.54,9.54,0,1,0,7.54,3.21c-.23,2.81-1.25,6.18-4.85,5.93l1-5.41A3.29,3.29,0,0,0,202.08,136.94Z"/>
            <path class="cls-25" d="M270,148.32c.22.08.45.15.67.24h0a9.55,9.55,0,1,1-8.17.58c-.7,2.73-.84,6.25,2.65,7.19l.81-5.45A3.28,3.28,0,0,1,270,148.32Z"/>
          </g>
          <path class="cls-22" d="M243.92,95.63h0a32.77,32.77,0,0,0-37.62,26.82l-4.91,29.3a32.77,32.77,0,0,0,26.83,37.62h0a32.76,32.76,0,0,0,37.61-26.82l4.91-29.31A32.75,32.75,0,0,0,243.92,95.63Z"/>
          <path class="cls-29" d="M243.92,95.63h0a32.77,32.77,0,0,0-37.62,26.82l-4.91,29.3c-.11.69-.2,1.38-.27,2.06,19.24,1.39,38.24-8,41.82-31.11,0,0,7.69,1.17,9.61,1.67s9.14,6.39,8.35,15.62-3.17,26.65-8.77,35.08-14.58,14.61-29.46,12.86a32.51,32.51,0,0,0,5.55,1.44h0a32.76,32.76,0,0,0,37.61-26.82l4.91-29.31A32.75,32.75,0,0,0,243.92,95.63Z"/>
          <path class="cls-27" d="M260,120.71s-1.81,13,6.43,18.22c0,0-1.11,6.64-1.43,8.58s.3,5.13,2.48,5.49l.77-4.6,3.1-4,2-21.36-7.39-14.34-6.47-1.5S260,120.92,260,120.71Z"/>
          <path class="cls-27" d="M263.8,109.88l-6.69,7.69s-10.68-.43-14.58-1.84,7.9-24.27,7.9-24.27,7.26.84,7.84,1.32,1.58,8.71,1.58,8.71Z"/>
          <path class="cls-26" d="M256.88,147.52l-15.14,12.11a10.29,10.29,0,0,1-.74-2.91l13.19-10.56a9.87,9.87,0,0,1,2.69,1.36Zm3.94,5.81a10.07,10.07,0,0,0-2.75-4.81L242.46,161a10,10,0,0,0,4.09,3.74Z"/>
          <g>
            <path class="cls-25" d="M251.6,160.54a4.23,4.23,0,1,0,3.37,4.93A4.23,4.23,0,0,0,251.6,160.54Z"/>
            <path class="cls-25" d="M215.85,153.85a4.23,4.23,0,1,0,3.38,4.93A4.22,4.22,0,0,0,215.85,153.85Z"/>
          </g>
          <path class="cls-27" d="M216.81,137.14a8.46,8.46,0,0,1,7.83,1.27,1.06,1.06,0,0,0,1.48-.11,1.08,1.08,0,0,0-.12-1.48,10.62,10.62,0,0,0-9.8-1.68,1,1,0,1,0,.61,2Z"/>
          <path class="cls-27" d="M215.72,149.28a3.05,3.05,0,0,1,1.25-2,3.07,3.07,0,0,1,4.81,3,1,1,0,1,0,2.06.35,5.17,5.17,0,1,0-10.19-1.71,1,1,0,1,0,2.07.34Z"/>
          <path class="cls-27" d="M254.44,155.77a1,1,0,1,0,2.06.35,5.17,5.17,0,1,0-10.19-1.71,1,1,0,0,0,2.07.35,3.07,3.07,0,0,1,5.53-1.28A3.12,3.12,0,0,1,254.44,155.77Z"/>
          <path class="cls-27" d="M257.36,143.94a1.06,1.06,0,0,0,1.46-.23,1,1,0,0,0-.23-1.46,10.61,10.61,0,0,0-9.81-1.61,1,1,0,1,0,.77,2A8.43,8.43,0,0,1,257.36,143.94Z"/>
          <path class="cls-29" d="M261.46,325.82s5.08-3.4,7.82-5a7.2,7.2,0,0,1,7.36.08,116.19,116.19,0,0,1,10.48,8.38c1.17,1.24-5.63,4-6.34,4S261.46,325.82,261.46,325.82Z"/>
          <path class="cls-15" d="M147.12,337.6H311.53a4.6,4.6,0,0,0,4.59-4.6h0a4.6,4.6,0,0,0-4.59-4.59H147.12a4.6,4.6,0,0,0-4.59,4.59h0A4.6,4.6,0,0,0,147.12,337.6Z"/>
          <g>
            <path class="cls-27" d="M241.63,167a9.14,9.14,0,1,1-18-3.36h0a1.58,1.58,0,0,1,1.85-1.26l14.82,2.76a1.58,1.58,0,0,1,1.26,1.84Z"/>
            <path class="cls-30" d="M237,173.37a9.08,9.08,0,0,1-6,.94,9.2,9.2,0,0,1-4.49-2.24,5.68,5.68,0,0,1,5.75-2.36A5.78,5.78,0,0,1,237,173.37Z"/>
            <path class="cls-9" d="M226,162.49l13.93,2.6c-.07,1.58-1.07,3-2.17,3.15-1.34.18-11.37-2-11.94-2.89A5.43,5.43,0,0,1,226,162.49Z"/>
          </g>
          <path class="cls-31" d="M231.16,157.08s-1.62,2.06-1.43,3.32,2,.92,2.35-.11a9.06,9.06,0,0,0,.09-3.37C232.08,156.67,231.57,156.5,231.16,157.08Z"/>
          <path class="cls-27" d="M220.82,139.37A11,11,0,0,1,230,149.71a24.07,24.07,0,0,1,10.94,1.82,11,11,0,0,1,19.18-2.31,11.07,11.07,0,0,1,1.67,3.56l4.72-2.35a.91.91,0,1,1,.82,1.63l-5.21,2.6a10.8,10.8,0,0,1-.11,2.77,11,11,0,1,1-21.7-3.64l.09-.5a21.9,21.9,0,0,0-10.47-1.74c0,.16,0,.32-.07.49a11,11,0,1,1-21.7-3.64,11.34,11.34,0,0,1,.81-2.69l-4-4.1a.91.91,0,0,1,1.3-1.28l3.64,3.72a11.27,11.27,0,0,1,2.72-2.79,11,11,0,0,1,8.21-1.89Zm37.8,10.92a9.17,9.17,0,1,0,1.57,6.83,9.16,9.16,0,0,0-1.57-6.83Zm-32.15-5.39a9.18,9.18,0,1,0,1.57,6.84A9.18,9.18,0,0,0,226.47,144.9Z"/>
          <path class="cls-15" d="M257.11,117.57c2.42-14.14-8.94-17.72-12.74-4.17-5.82,20.83-15.63,48.38-54.36,33.6l-9-4c9.76-27.53,37.27-56.57,67.73-57.64,9.36-.33,20.39,14.73,21.12,17.13s-.51,10.19-1.34,11.34c0,0-7.71,7.18-8.56,6.84S257.11,117.57,257.11,117.57Z"/>
          <path class="cls-14" d="M186.8,130.15a100.19,100.19,0,0,1,7.95-12.27c13.45,12.1,45,3.46,46.32-31.63,1.21-.23,2.43-.41,3.66-.56C240.87,120.78,217.53,142.51,186.8,130.15Z"/>
          <path class="cls-27" d="M243.08,117.85C237,137.88,226,160.75,190,147l-9-4a83.94,83.94,0,0,1,3.3-8C194.75,140.5,223.43,151.19,243.08,117.85Z"/>
          <path class="cls-15" d="M308.52,240.19H150.14a3.6,3.6,0,0,0-3.64,4.28l12.1,80.4a5.18,5.18,0,0,0,4.93,4.28H295.12a5.17,5.17,0,0,0,4.93-4.28l12.1-80.4A3.6,3.6,0,0,0,308.52,240.19Z"/>
          <path class="cls-9" d="M244.45,191.06s-3.27,7.85-4.37,9.83-8.38,8.82-8.38,8.82-.23.59,0,.91,11.15,9.29,11.15,9.29.91.64,1.59-.77,4.06-13.34,4.33-16.35-1.37-12.29-1.37-12.29l-2.84-1.59Z"/>
          <path class="cls-9" d="M214.82,191.06s3.26,7.85,4.36,9.83,8.39,8.82,8.39,8.82.22.59,0,.91-11.16,9.29-11.16,9.29-.91.64-1.59-.77-4-13.34-4.32-16.35.86-10.83.86-10.83l3.35-3.05Z"/>
          <path class="cls-15" d="M272,114.8c-7.72,10.11-3.81,32.25,11.36,33.83C285.21,138.1,278.78,123.85,272,114.8Z"/>
          <path class="cls-32" d="M305,244H153.66a3.45,3.45,0,0,0-3.48,4.09l11.57,76.82a5,5,0,0,0,4.71,4.09H292.2a4.94,4.94,0,0,0,4.7-4.09l11.57-76.82A3.44,3.44,0,0,0,305,244Z"/>
          <path class="cls-15" d="M158.78,305.2l3,19.7a5,5,0,0,0,4.71,4.09H292.2a4.94,4.94,0,0,0,4.7-4.09l11.57-76.82a3.44,3.44,0,0,0-2.24-3.89C288.91,274.08,246.34,323,158.78,305.2Z"/>
          <path class="cls-15" d="M229.33,308.57c9.27,0,16.83-6.31,16.83-14.05s-7.56-14-16.83-14-16.84,6.31-16.84,14S220.06,308.57,229.33,308.57Z"/>
          <path class="cls-9" d="M229.33,283.84a13.43,13.43,0,0,1,11,5.29L220.8,302.48a10,10,0,0,1-4.26-8c0-5.89,5.72-10.68,12.79-10.68Zm10.39,16.91-5.88-3.24-9.8,6.73a14.71,14.71,0,0,0,5.29,1A13.72,13.72,0,0,0,239.72,300.75Z"/>
          <path class="cls-2" d="M179.9,218.14a142,142,0,0,1-26.22,1.39c-26.35-.72-41.37-7.7-39.89-30.3-2.7,11.58-2.25,21.85,4.89,27.93,12,8.65,39,14.45,58.07,16.52.44-2.17.9-4.37,1.36-6.56C178.71,224.05,179.31,221,179.9,218.14Z"/>
        </g>
        <g>
          <path class="cls-15" d="M98.58,341.25H360.73a6,6,0,0,1,6,6h0a6,6,0,0,1-6,6H98.58a6,6,0,0,1-6-6h0A6,6,0,0,1,98.58,341.25Z"/>
          <path class="cls-33" d="M85.83,332H373.48a7.66,7.66,0,0,1,7.63,7.64h0a7.66,7.66,0,0,1-7.63,7.64H85.83a7.66,7.66,0,0,1-7.63-7.64h0A7.66,7.66,0,0,1,85.83,332Z"/>
          <rect class="cls-34" x="260.18" y="331.96" width="15.89" height="15.27"/>
          <rect class="cls-34" x="284.33" y="331.96" width="8.25" height="15.27"/>
          <rect class="cls-34" x="301.25" y="331.96" width="4.13" height="15.27"/>
          <rect class="cls-34" x="319.51" y="331.96" width="17.78" height="15.27"/>
          <rect class="cls-34" x="350.69" y="331.96" width="8.89" height="15.27"/>
          <path class="cls-35" d="M86.45,334.44h139.8a4.56,4.56,0,0,1,4.54,4.54h0a4.55,4.55,0,0,1-4.54,4.54H86.45A4.55,4.55,0,0,1,81.91,339h0A4.56,4.56,0,0,1,86.45,334.44Z"/>
        </g>
      </g>
    </g>
  </g>
</svg>
