<svg id="Layer_1" data-name="Layer 1" xmlns="http://www.w3.org/2000/svg" viewBox="0 0 457.3 581.46">
  <defs>
    <style>
      .cls-1 {
        fill: #fff;
      }

      .cls-1, .cls-24 {
        stroke: #1d1d1b;
        stroke-miterlimit: 10;
        stroke-width: 3px;
      }

      .cls-2 {
        fill: #eb5743;
      }

      .cls-3 {
        fill: #ee715c;
      }

      .cls-4 {
        fill: #ffd25f;
      }

      .cls-5 {
        fill: #f8b74c;
      }

      .cls-6 {
        fill: #425b6c;
      }

      .cls-7 {
        fill: #364b5e;
      }

      .cls-8 {
        fill: #8dd3f4;
      }

      .cls-9 {
        fill: #f4963b;
      }

      .cls-10 {
        fill: #ef7d29;
      }

      .cls-11 {
        fill: #b86325;
      }

      .cls-12 {
        fill: #a14f17;
      }

      .cls-13 {
        fill: #7f4436;
      }

      .cls-14 {
        fill: #6e372d;
      }

      .cls-15 {
        fill: #e8e7e7;
      }

      .cls-16 {
        fill: #cfcccc;
      }

      .cls-17 {
        fill: #e9474a;
      }

      .cls-18 {
        fill: #e02132;
      }

      .cls-19 {
        fill: #ffd975;
      }

      .cls-20 {
        fill: #fcc53b;
      }

      .cls-21 {
        fill: #98c771;
      }

      .cls-22 {
        fill: #54c2e7;
      }

      .cls-23 {
        fill: #b1deee;
      }

      .cls-24 {
        fill: none;
      }

      .cls-25 {
        font-size: 17px;
        fill: #1d1d1b;
        font-family: MyriadPro-Regular, Myriad Pro;
      }
    </style>
  </defs>
  <title>tsp--basic-withpath-3</title>
  <circle class="cls-1" cx="49" cy="174.78" r="47.5"/>
  <circle class="cls-1" cx="340.3" cy="75.68" r="48.5"/>
  <circle class="cls-1" cx="120.3" cy="478.68" r="48.5"/>
  <circle class="cls-1" cx="400.3" cy="500.18" r="55.5"/>
  <rect class="cls-2" x="416.31" y="473.72" width="7.4" height="12.92"/>
  <rect class="cls-3" x="413.49" y="467.12" width="13.05" height="7"/>
  <path class="cls-4" d="M435.86,511.1v29.73H488.6V511.1l-26.37-26.37h0C452,495.09,446.22,500.88,435.86,511.1Z" transform="translate(-62.2 -11.82)"/>
  <path class="cls-5" d="M488.73,511.1l-26.36-26.37c-5.25,5.11-9.29,9.15-13.32,13.19L435.86,511.1v6.06l26.37-26.37,26.37,26.37v.8h0V511.1Z" transform="translate(-62.2 -11.82)"/>
  <path class="cls-6" d="M457.52,540.83H441.65v-15.6a8,8,0,0,1,7.93-7.94h0a8,8,0,0,1,7.94,7.94Z" transform="translate(-62.2 -11.82)"/>
  <rect class="cls-7" x="400.04" y="505.47" width="20.72" height="18.16"/>
  <g>
    <rect class="cls-8" x="402.19" y="507.62" width="7.13" height="13.86"/>
    <rect class="cls-8" x="411.47" y="507.62" width="7.13" height="13.86"/>
  </g>
  <path class="cls-3" d="M493.58,505.59l-28.12-28.12a4.37,4.37,0,0,0-6,0l-28,28.12a4.28,4.28,0,1,0,6.06,6.05l25-25,25,25a4.28,4.28,0,0,0,6.06-6.05Z" transform="translate(-62.2 -11.82)"/>
  <rect class="cls-2" x="356.31" y="49.32" width="7.4" height="12.92"/>
  <rect class="cls-3" x="353.49" y="42.73" width="13.05" height="7"/>
  <path class="cls-4" d="M375.86,86.7v29.74H428.6V86.7L402.23,60.33h0C392,70.69,386.22,76.48,375.86,86.7Z" transform="translate(-62.2 -11.82)"/>
  <path class="cls-5" d="M428.73,86.7,402.37,60.33c-5.25,5.12-9.29,9.15-13.32,13.19L375.86,86.7v6.06l26.37-26.37L428.6,92.76v.81h0V86.7Z" transform="translate(-62.2 -11.82)"/>
  <path class="cls-6" d="M397.52,116.44H381.65V100.83a8,8,0,0,1,7.93-7.94h0a8,8,0,0,1,7.94,7.94Z" transform="translate(-62.2 -11.82)"/>
  <rect class="cls-7" x="340.04" y="81.07" width="20.72" height="18.16"/>
  <g>
    <rect class="cls-8" x="342.19" y="83.22" width="7.13" height="13.86"/>
    <rect class="cls-8" x="351.47" y="83.22" width="7.13" height="13.86"/>
  </g>
  <path class="cls-3" d="M433.58,81.19,405.46,53.07a4.39,4.39,0,0,0-6,0l-28,28.12a4.28,4.28,0,0,0,6.06,6l25-25,25,25a4.28,4.28,0,0,0,6.06-6Z" transform="translate(-62.2 -11.82)"/>
  <rect class="cls-2" x="136.31" y="451.9" width="7.4" height="12.92"/>
  <rect class="cls-3" x="133.49" y="445.31" width="13.05" height="7"/>
  <path class="cls-4" d="M155.86,489.29V519H208.6V489.29l-26.37-26.37h0C172,473.28,166.22,479.06,155.86,489.29Z" transform="translate(-62.2 -11.82)"/>
  <path class="cls-5" d="M208.73,489.29l-26.36-26.37c-5.25,5.11-9.29,9.15-13.32,13.18l-13.19,13.19v6L182.23,469l26.37,26.37v.81h0v-6.86Z" transform="translate(-62.2 -11.82)"/>
  <path class="cls-6" d="M177.52,519H161.65V503.41a7.94,7.94,0,0,1,7.93-7.93h0a8,8,0,0,1,7.94,7.93Z" transform="translate(-62.2 -11.82)"/>
  <rect class="cls-7" x="120.04" y="483.65" width="20.72" height="18.16"/>
  <g>
    <rect class="cls-8" x="122.19" y="485.81" width="7.13" height="13.86"/>
    <rect class="cls-8" x="131.47" y="485.81" width="7.13" height="13.86"/>
  </g>
  <path class="cls-3" d="M213.58,483.77l-28.12-28.12a4.39,4.39,0,0,0-6.05,0l-28,28.12a4.29,4.29,0,0,0,6.06,6.06l25-25,25,25a4.29,4.29,0,0,0,6.06-6.06Z" transform="translate(-62.2 -11.82)"/>
  <path class="cls-9" d="M88,190.3H134.5v28.2H88Z" transform="translate(-62.2 -11.82)"/>
  <path class="cls-9" d="M88,190.3H134.5v28.2H88Z" transform="translate(-62.2 -11.82)"/>
  <path class="cls-10" d="M94.5,190.3H88v28.2H134.5v-5.25h-17A22.94,22.94,0,0,1,94.5,190.3Z" transform="translate(-62.2 -11.82)"/>
  <path class="cls-11" d="M89.7,164.1h43.06v15.36H89.7Z" transform="translate(-62.2 -11.82)"/>
  <path class="cls-12" d="M95.47,164.1H89.7v15.36h43.06v-6.22H104.61A9.14,9.14,0,0,1,95.47,164.1Z" transform="translate(-62.2 -11.82)"/>
  <path class="cls-13" d="M90,166.1h42.57a2,2,0,1,0,0-3.95H90a2,2,0,0,0,0,3.95Z" transform="translate(-62.2 -11.82)"/>
  <path class="cls-14" d="M92.84,164.3a2,2,0,0,1-2-2c0-.06,0-.12,0-.17H90a2,2,0,0,0,0,3.95h42.57a2,2,0,0,0,2-1.8Z" transform="translate(-62.2 -11.82)"/>
  <path class="cls-15" d="M132.92,176.42a.51.51,0,0,0-.45-.29H89.85a.21.21,0,0,0-.19.13l-4.31,9.67v5.86a2.88,2.88,0,1,0,5.76,0,2.88,2.88,0,1,0,5.75,0,2.88,2.88,0,0,0,5.76,0,2.88,2.88,0,1,0,5.75,0,2.88,2.88,0,0,0,5.76,0,2.88,2.88,0,1,0,5.75,0,2.88,2.88,0,1,0,5.76,0,2.88,2.88,0,1,0,5.75,0,2.88,2.88,0,1,0,5.75,0v-5.86Z" transform="translate(-62.2 -11.82)"/>
  <path class="cls-15" d="M128,176.13l3.39,9.8h-5.75l-2.43-9.8Z" transform="translate(-62.2 -11.82)"/>
  <path class="cls-16" d="M131.39,185.93v5.86a2.88,2.88,0,1,1-5.75,0v-5.86Z" transform="translate(-62.2 -11.82)"/>
  <path class="cls-16" d="M119.88,185.93v5.86a2.88,2.88,0,1,1-5.75,0v-5.86Z" transform="translate(-62.2 -11.82)"/>
  <path class="cls-15" d="M118.43,176.13l1.45,9.8h-5.75l-.49-9.8Z" transform="translate(-62.2 -11.82)"/>
  <path class="cls-15" d="M108.86,176.13l-.49,9.8h-5.75l1.45-9.8Z" transform="translate(-62.2 -11.82)"/>
  <path class="cls-16" d="M108.37,185.93v5.86a2.88,2.88,0,1,1-5.75,0v-5.86Z" transform="translate(-62.2 -11.82)"/>
  <path class="cls-16" d="M96.86,185.93v5.86a2.88,2.88,0,1,1-5.75,0v-5.86Z" transform="translate(-62.2 -11.82)"/>
  <path class="cls-15" d="M99.29,176.13l-2.43,9.8H91.11l3.39-9.8Z" transform="translate(-62.2 -11.82)"/>
  <g>
    <path class="cls-17" d="M94.5,176.13l-3.39,9.8-2.88.93-2.88-.93,4.31-9.67a.21.21,0,0,1,.19-.13Z" transform="translate(-62.2 -11.82)"/>
    <path class="cls-17" d="M104.07,176.13l-1.45,9.8-2.88.93-2.88-.93,2.43-9.8Z" transform="translate(-62.2 -11.82)"/>
    <path class="cls-17" d="M113.64,176.13l.49,9.8L111.25,187l-2.88-1.08.49-9.8Z" transform="translate(-62.2 -11.82)"/>
    <path class="cls-17" d="M123.21,176.13l2.43,9.8L122.76,187l-2.88-1.08-1.45-9.8Z" transform="translate(-62.2 -11.82)"/>
    <path class="cls-17" d="M132.92,176.42l4.22,9.51L134.27,187l-2.88-1.08-3.39-9.8h4.47A.51.51,0,0,1,132.92,176.42Z" transform="translate(-62.2 -11.82)"/>
  </g>
  <path class="cls-18" d="M137.14,185.93v5.86a2.88,2.88,0,1,1-5.75,0v-5.86Z" transform="translate(-62.2 -11.82)"/>
  <path class="cls-18" d="M125.64,185.93v5.86a2.88,2.88,0,1,1-5.76,0v-5.86Z" transform="translate(-62.2 -11.82)"/>
  <path class="cls-18" d="M114.13,185.93v5.86a2.88,2.88,0,0,1-5.76,0v-5.86Z" transform="translate(-62.2 -11.82)"/>
  <path class="cls-18" d="M102.62,185.93v5.86a2.88,2.88,0,0,1-5.76,0v-5.86Z" transform="translate(-62.2 -11.82)"/>
  <path class="cls-18" d="M91.11,185.93v5.86a2.88,2.88,0,1,1-5.76,0v-5.86Z" transform="translate(-62.2 -11.82)"/>
  <path class="cls-19" d="M120.12,144.39c6.93,3.07,9.65,8.92,7.86,17.76h-5.34a1.77,1.77,0,0,0-1.78,1.78v4.27a2.15,2.15,0,0,1-.62,1.5,2.12,2.12,0,0,1-3.61-1.5v-4.27a1.78,1.78,0,0,0-3.56,0v2.57a2.11,2.11,0,0,1-2.21,2.11,2.14,2.14,0,0,1-2-2.17v-2.51a1.78,1.78,0,0,0-1.78-1.78h-.61a1.78,1.78,0,0,0-1.78,1.78v6.44a2.12,2.12,0,0,1-2.21,2.11,2.16,2.16,0,0,1-2-2.17v-6.38a1.78,1.78,0,0,0-1.78-1.78H96.11a.72.72,0,0,1-.43-1.31l22.14-16.21A2.32,2.32,0,0,1,120.12,144.39Z" transform="translate(-62.2 -11.82)"/>
  <path class="cls-20" d="M97.93,160.84l22.14-16.21.24-.15-.19-.09a2.32,2.32,0,0,0-2.3.24L95.68,160.84a.72.72,0,0,0,.43,1.31h2.25A.73.73,0,0,1,97.93,160.84Z" transform="translate(-62.2 -11.82)"/>
  <path class="cls-20" d="M102.71,170.31v-6.38a1.78,1.78,0,0,0-1.78-1.78H98.68a1.78,1.78,0,0,1,1.78,1.78v6.38a2.16,2.16,0,0,0,2,2.17,2.12,2.12,0,0,0,1.24-.33A2.18,2.18,0,0,1,102.71,170.31Z" transform="translate(-62.2 -11.82)"/>
  <path class="cls-20" d="M118.88,168.2v-4.27a1.78,1.78,0,0,0-1.78-1.78,1.74,1.74,0,0,0-1.12.4l.13.12a1.78,1.78,0,0,1,.52,1.26v4.27a2.11,2.11,0,0,0,2.11,2.11,2.16,2.16,0,0,0,1.13-.32A2.14,2.14,0,0,1,118.88,168.2Z" transform="translate(-62.2 -11.82)"/>
  <path class="cls-20" d="M111.1,166.44v-2.51a1.78,1.78,0,0,0-1.78-1.78h-.6a1.78,1.78,0,0,0-.83.2,1.78,1.78,0,0,1,1,1.58v2.51a2.14,2.14,0,0,0,2,2.17,2.07,2.07,0,0,0,1.23-.33A2.2,2.2,0,0,1,111.1,166.44Z" transform="translate(-62.2 -11.82)"/>
  <path class="cls-17" d="M110.85,149.73a3.9,3.9,0,0,1-2.28,7.07,3.92,3.92,0,0,1-3.71-2.69Z" transform="translate(-62.2 -11.82)"/>
  <path class="cls-9" d="M120.12,144.39c6.93,3.07,9.65,8.92,7.86,17.76h-4.13v0c.79-7.39-1.42-12.4-7.64-15.16a2.55,2.55,0,0,0-.72-.19.46.46,0,0,1-.34-.19l2.67-2A2.32,2.32,0,0,1,120.12,144.39Z" transform="translate(-62.2 -11.82)"/>
  <path class="cls-17" d="M120.14,157.47a2,2,0,1,1-2-2A2,2,0,0,1,120.14,157.47Z" transform="translate(-62.2 -11.82)"/>
  <path class="cls-21" d="M103.33,161.66a1.09,1.09,0,0,1-.43-.08l-1-.41a1.16,1.16,0,1,1,.85-2.16l1,.41a1.16,1.16,0,0,1-.43,2.24Z" transform="translate(-62.2 -11.82)"/>
  <path class="cls-21" d="M110.75,161.83a1.13,1.13,0,0,1-.82-.34,1.16,1.16,0,0,1,0-1.64l.66-.66a1.16,1.16,0,1,1,1.63,1.65l-.65.65A1.16,1.16,0,0,1,110.75,161.83Z" transform="translate(-62.2 -11.82)"/>
  <path class="cls-21" d="M116.13,153.11a.9.9,0,0,1-.28,0,1.15,1.15,0,0,1-.84-1.4l.34-1.35a1.15,1.15,0,0,1,1.4-.84,1.17,1.17,0,0,1,.85,1.41l-.34,1.34A1.17,1.17,0,0,1,116.13,153.11Z" transform="translate(-62.2 -11.82)"/>
  <path class="cls-13" d="M137.07,217.33a2,2,0,0,1,.58,1.42,2,2,0,0,1-2,2H86.73a2,2,0,0,1-2-2,2,2,0,0,1,2-2h48.93A2,2,0,0,1,137.07,217.33Z" transform="translate(-62.2 -11.82)"/>
  <path class="cls-14" d="M90.85,218.74a2,2,0,0,1-2-2H86.73a2,2,0,0,0-2,2,2,2,0,0,0,2,2h48.93a2,2,0,0,0,2-2H90.85Z" transform="translate(-62.2 -11.82)"/>
  <path class="cls-11" d="M130.08,202.11v14.64H116.15V202.11a3,3,0,0,1,3-3h8A3,3,0,0,1,130.08,202.11Z" transform="translate(-62.2 -11.82)"/>
  <path class="cls-12" d="M126.35,203.48v2.74a.64.64,0,0,1-.63.64h-5.2a.64.64,0,0,1-.64-.64v-2.74a.64.64,0,0,1,.64-.64h5.2A.64.64,0,0,1,126.35,203.48Z" transform="translate(-62.2 -11.82)"/>
  <path class="cls-22" d="M112.16,200.12v10.37a1,1,0,0,1-1,1H92.86a1,1,0,0,1-1-1V200.12a1,1,0,0,1,1-1H111.2A1,1,0,0,1,112.16,200.12Z" transform="translate(-62.2 -11.82)"/>
  <path class="cls-23" d="M111.2,199.15H102v12.3h9.17a1,1,0,0,0,1-1V200.12A1,1,0,0,0,111.2,199.15Z" transform="translate(-62.2 -11.82)"/>
  <path class="cls-12" d="M126.35,213.3h-6.47a1.16,1.16,0,1,1,0-2.32h6.47a1.16,1.16,0,1,1,0,2.32Z" transform="translate(-62.2 -11.82)"/>
  <line class="cls-24" x1="42.67" y1="239.88" x2="88.02" y2="422.94"/>
  <line class="cls-24" x1="76.87" y1="232.1" x2="122.21" y2="415.17"/>
  <line class="cls-24" x1="323.15" y1="136.44" x2="174.34" y2="433.73"/>
  <line class="cls-24" x1="297.95" y1="118.76" x2="149.14" y2="416.06"/>
  <line class="cls-24" x1="361.73" y1="146.01" x2="411.35" y2="433.33"/>
  <line class="cls-24" x1="329.19" y1="157.66" x2="377.81" y2="439.2"/>
  <line class="cls-24" x1="176.16" y1="508.57" x2="334.11" y2="515.88"/>
  <line class="cls-24" x1="177.83" y1="475.02" x2="335.78" y2="482.33"/>
  <line class="cls-24" x1="107.39" y1="139.11" x2="257.74" y2="90.15"/>
  <line class="cls-24" x1="122.58" y1="168.12" x2="272.93" y2="119.16"/>
  <line class="cls-24" x1="99.45" y1="225.62" x2="336.22" y2="444.81"/>
  <line class="cls-24" x1="120.04" y1="199.16" x2="358.6" y2="420.01"/>
  <line class="cls-24" x1="34.67" y1="259.79" x2="42.67" y2="239.88"/>
  <line class="cls-24" x1="257.74" y1="90.15" x2="239.32" y2="83.22"/>
  <line class="cls-24" x1="122.58" y1="168.12" x2="143.71" y2="173.58"/>
  <line class="cls-24" x1="297.95" y1="118.76" x2="280.34" y2="124.18"/>
  <line class="cls-24" x1="174.34" y1="433.73" x2="198.76" y2="427.01"/>
  <line class="cls-24" x1="122.21" y1="415.17" x2="130.15" y2="398.43"/>
  <line class="cls-24" x1="99.45" y1="225.62" x2="101.5" y2="245.84"/>
  <line class="cls-24" x1="358.6" y1="420.01" x2="355.04" y2="396.13"/>
  <line class="cls-24" x1="329.19" y1="157.66" x2="319.45" y2="178.48"/>
  <line class="cls-24" x1="411.35" y1="433.33" x2="420.75" y2="416.81"/>
  <line class="cls-24" x1="176.16" y1="508.57" x2="185.55" y2="521.48"/>
  <line class="cls-24" x1="335.78" y1="482.33" x2="324.32" y2="470.62"/>
  <text class="cls-25" transform="translate(22.54 114.63)">Node 0</text>
  <text class="cls-25" transform="translate(313.67 14.23)">Node 1</text>
  <text class="cls-25" transform="translate(379.45 577.21)">Node 2</text>
  <text class="cls-25" transform="translate(96.5 548.1)">Node 3</text>
  <text class="cls-25" transform="translate(161.36 103.84)">12</text>
  <text class="cls-25" transform="translate(184.37 170.71)">8</text>
  <text class="cls-25" transform="translate(394.91 289.69)">20</text>
  <text class="cls-25" transform="translate(323.81 300.7)">6</text>
  <text class="cls-25" transform="translate(223.08 218.89)">11</text>
  <text class="cls-25" transform="translate(277.54 247.85)">5</text>
  <text class="cls-25" transform="translate(254.72 404.87)">21</text>
  <text class="cls-25" transform="translate(301.29 353.55)">7</text>
  <text class="cls-25" transform="translate(109.19 327.47)">16</text>
  <text class="cls-25" transform="translate(34.29 332.85)">7</text>
  <text class="cls-25" transform="translate(237.22 465.52)">6</text>
  <text class="cls-25" transform="translate(237.69 532.85)">18</text>
</svg>
